<?xml version="1.0" encoding="utf-8"?>
<!-- Generator: Adobe Illustrator 19.0.0, SVG Export Plug-In . SVG Version: 6.00 Build 0)  -->
<svg version="1.1" id="Layer_1" xmlns="http://www.w3.org/2000/svg" xmlns:xlink="http://www.w3.org/1999/xlink" x="0px" y="0px"
	 viewBox="0 0 150 150" style="enable-background:new 0 0 150 150;" xml:space="preserve">
<style type="text/css">
	.st0{fill:#DDDDDD;}
	.st1{fill:#AAAAAA;}
	.st2{fill:#FFFFFF;}
</style>
<rect id="XMLID_1_" class="st0" width="150" height="150"/>
<path class="st1" d="M115,139.1H35c-13.7,0-25-11.2-25-25v0c0-13.7,11.2-25,25-25h80c13.7,0,25,11.2,25,25v0
	C140,127.8,128.8,139.1,115,139.1z"/>
<g>
	<polygon class="st2" points="37.2,100.2 41.6,109.1 51.4,110.5 44.3,117.5 46,127.2 37.2,122.6 28.4,127.2 30.1,117.5 23,110.5 
		32.8,109.1 	"/>
	<g>
		<path class="st2" d="M68.1,127.5v-22.9h-8.6v-3.1h20.6v3.1h-8.6v22.9H68.1z"/>
		<path class="st2" d="M92.1,121.5l3.3,0.4c-0.5,1.9-1.5,3.4-2.9,4.5c-1.4,1.1-3.2,1.6-5.4,1.6c-2.8,0-4.9-0.8-6.5-2.5
			c-1.6-1.7-2.4-4.1-2.4-7.1c0-3.2,0.8-5.6,2.4-7.4c1.6-1.7,3.7-2.6,6.3-2.6c2.5,0,4.6,0.9,6.2,2.6s2.4,4.1,2.4,7.2
			c0,0.2,0,0.5,0,0.8h-14c0.1,2.1,0.7,3.6,1.8,4.7c1.1,1.1,2.4,1.6,3.9,1.6c1.2,0,2.2-0.3,3-0.9C91,123.8,91.7,122.8,92.1,121.5z
			 M81.7,116.3h10.5c-0.1-1.6-0.5-2.8-1.2-3.6c-1-1.2-2.3-1.8-3.9-1.8c-1.5,0-2.7,0.5-3.7,1.5C82.3,113.4,81.8,114.7,81.7,116.3z"/>
		<path class="st2" d="M97.3,127.5l6.9-9.8l-6.4-9h4l2.9,4.4c0.5,0.8,1,1.5,1.3,2.1c0.5-0.8,1-1.5,1.4-2.1l3.2-4.4h3.8l-6.5,8.9
			l7,10H111l-3.9-5.8l-1-1.6l-4.9,7.4H97.3z"/>
		<path class="st2" d="M124.5,124.7l0.5,2.8c-0.9,0.2-1.7,0.3-2.4,0.3c-1.2,0-2.1-0.2-2.7-0.5c-0.6-0.4-1.1-0.8-1.3-1.4
			c-0.3-0.6-0.4-1.9-0.4-3.8v-10.8h-2.3v-2.5h2.3V104l3.2-1.9v6.6h3.2v2.5h-3.2v11c0,0.9,0.1,1.5,0.2,1.8c0.1,0.3,0.3,0.5,0.5,0.6
			c0.3,0.2,0.6,0.2,1.1,0.2C123.5,124.8,124,124.7,124.5,124.7z"/>
	</g>
</g>
</svg>
