<svg xmlns="http://www.w3.org/2000/svg"  viewBox="0 0 150 150" style="enable-background:new 0 0 150 150;" xml:space="preserve">
<style type="text/css">
	.st0{fill:#DDDDDD;}
	.st1{fill:#AAAAAA;}
	.st2{fill:#FFFFFF;}
	#tooltip {
	  animation-timing-function: linear;
	  animation-iteration-count: infinite;
	  opacity: 0;
	  animation-name: menu;
	  animation-duration: 3s;
	  transform-origin: 50% 58%;
	}
	@keyframes menu {
	  0%   {transform: scale(0); opacity: 0;}
	  33.333% { transform: scale(1);opacity: 1;}
	  66.666% { transform: scale(1);opacity: 1;}
	  100% { transform: scale(0); opacity: 0;}
	}
</style>
<rect id="XMLID_1_" class="st0" width="150" height="150"/>
<path class="st1" d="M75,139.1L75,139.1c-13.8,0-25-11.2-25-25v0c0-13.7,11.2-25,25-25h0c13.7,0,25,11.2,25,25v0
	C100,127.8,88.8,139.1,75,139.1z"/>
<polygon class="st2" points="75,100.2 79.4,109.1 89.2,110.5 82.1,117.5 83.8,127.2 75,122.6 66.2,127.2 67.9,117.5 60.8,110.5 
	70.6,109.1 "/>
<g id="tooltip">
	<path class="st1" d="M126.2,20.3H23.8c-5.5,0-10,4.5-10,10v31.3c0,5.5,4.5,10,10,10h44.8L75,78l6.4-6.4h44.8c5.5,0,10-4.5,10-10
		V30.3C136.2,24.8,131.7,20.3,126.2,20.3z"/>
		<path class="st2" d="M50.8,57.8V34.9h-8.6v-3.1h20.6v3.1h-8.6v22.9H50.8z"/>
		<path class="st2" d="M74.9,52.7l3.3,0.4c-0.5,1.9-1.5,3.4-2.9,4.5c-1.4,1.1-3.2,1.6-5.4,1.6c-2.8,0-4.9-0.8-6.5-2.5
			c-1.6-1.7-2.4-4.1-2.4-7.1c0-3.2,0.8-5.6,2.4-7.4c1.6-1.7,3.7-2.6,6.3-2.6c2.5,0,4.6,0.9,6.2,2.6c1.6,1.7,2.4,4.1,2.4,7.2
			c0,0.2,0,0.5,0,0.8h-14c0.1,2.1,0.7,3.6,1.8,4.7c1.1,1.1,2.4,1.6,3.9,1.6c1.2,0,2.2-0.3,3-0.9C73.7,55,74.4,54.1,74.9,52.7z
			 M64.4,47.6h10.5c-0.1-1.6-0.5-2.8-1.2-3.6c-1-1.2-2.3-1.8-3.9-1.8c-1.5,0-2.7,0.5-3.7,1.5C65,44.6,64.5,45.9,64.4,47.6z"/>
		<path class="st2" d="M80,57.8l6.9-9.8l-6.4-9h4l2.9,4.4c0.5,0.8,1,1.5,1.3,2.1c0.5-0.8,1-1.5,1.4-2.1l3.2-4.4h3.8l-6.5,8.9l7,10
			h-3.9l-3.9-5.8l-1-1.6l-4.9,7.4H80z"/>
		<path class="st2" d="M107.2,54.9l0.5,2.8c-0.9,0.2-1.7,0.3-2.4,0.3c-1.2,0-2.1-0.2-2.7-0.5c-0.6-0.4-1.1-0.8-1.3-1.4
			c-0.3-0.6-0.4-1.9-0.4-3.8V41.4h-2.3V39h2.3v-4.7l3.2-1.9V39h3.2v2.5H104v11c0,0.9,0.1,1.5,0.2,1.8c0.1,0.3,0.3,0.5,0.5,0.6
			c0.3,0.2,0.6,0.2,1.1,0.2C106.2,55,106.7,55,107.2,54.9z"/>
</g>
</svg>
